<?xml version="1.0" encoding="UTF-8"?>
<svg width="52px" height="25px" viewBox="0 0 52 25" version="1.1" xmlns="http://www.w3.org/2000/svg" xmlns:xlink="http://www.w3.org/1999/xlink">
    <!-- Generator: Sketch 48.2 (47327) - http://www.bohemiancoding.com/sketch -->
    <title>Group</title>
    <desc>Created with Sketch.</desc>
    <defs>
        <polygon id="path-1" points="6.875e-05 -0.0001375 11 -0.0001375 11 16.4998625 6.875e-05 16.4998625"></polygon>
        <polygon id="path-3" points="0 5.8983666e-06 24.9942922 5.8983666e-06 24.9942922 8.52904401 0 8.52904401"></polygon>
    </defs>
    <g id="bothsymbol" stroke="none" stroke-width="1" fill="none" fill-rule="evenodd" transform="translate(-4.000000, 1.000000)">
        <g id="Group" transform="translate(4.000000, 0.000000)">
            <path d="M39.5,0.5 L23.5,22.5" id="Line-3" stroke="#000000" stroke-width="2" stroke-linecap="square"></path>
            <g id="Page-1" transform="translate(41.000000, 2.000000)">
                <polygon id="Fill-1" fill="#000000" points="3.9881875 4.125 6.7381875 4.125 6.7381875 0 3.9881875 0"></polygon>
                <polygon id="Fill-2" fill="#000000" points="3.9881875 22 6.7381875 22 6.7381875 17.875 3.9881875 17.875"></polygon>
                <polygon id="Fill-3" fill="#000000" points="3.9876375 18.5625 6.7376375 21.3125 6.7376375 18.5625"></polygon>
                <g id="Group-6" transform="translate(0.000000, 2.750000)">
                    <mask id="mask-2" fill="white">
                        <use xlink:href="#path-1"></use>
                    </mask>
                    <g id="Clip-5"></g>
                    <path d="M0.82506875,12.5811125 C1.78756875,13.0623625 3.30006875,13.5436125 4.81256875,13.5436125 C6.46256875,13.5436125 7.35631875,12.8561125 7.35631875,11.7561125 C7.35631875,10.7936125 6.60006875,10.1748625 4.67506875,9.5568 C1.99381875,8.5936125 0.27506875,7.1498625 0.27506875,4.8123625 C0.27506875,2.0623625 2.54381875,-0.0001375 6.32506875,-0.0001375 C8.18131875,-0.0001375 9.48756875,0.3436125 10.3813188,0.8248625 L9.55631875,3.7123625 C8.93756875,3.3686125 7.76881875,2.9561125 6.25631875,2.9561125 C4.67506875,2.9561125 3.91881875,3.7123625 3.91881875,4.4686125 C3.91881875,5.4998625 4.81256875,5.9123625 6.87506875,6.7373625 C9.69381875,7.7686125 11.0000688,9.2811125 11.0000688,11.5498625 C11.0000688,14.2311125 8.93756875,16.4998625 4.53756875,16.4998625 C2.68131875,16.4998625 0.89381875,16.0186125 6.875e-05,15.5373625 L0.82506875,12.5811125 Z" id="Fill-4" fill="#000000" mask="url(#mask-2)"></path>
                </g>
            </g>
            <g id="Page-1" transform="translate(0.000000, 3.000000)">
                <g id="Group-3">
                    <mask id="mask-4" fill="white">
                        <use xlink:href="#path-3"></use>
                    </mask>
                    <g id="Clip-2"></g>
                    <path d="M24.9771461,4.96053221 C21.6666438,1.76361751 17.3345091,5.8983666e-06 12.7910731,5.8983666e-06 C8.23062785,5.8983666e-06 3.90408676,1.76361751 0.582226027,4.96053221 L-2.28310502e-05,5.52087704 L0.565045662,6.09891697 L2.40871005,7.98639428 L2.93947489,8.52904401 L3.48742009,8.00998775 C6.02737443,5.59755581 9.32646119,4.26452495 12.7796575,4.26452495 C16.232911,4.26452495 19.5376484,5.59755581 22.0719521,8.00998775 L22.6198402,8.52904401 L23.1506621,7.98639428 L24.9943265,6.09891697" id="Fill-1" fill="#000000" mask="url(#mask-4)"></path>
                </g>
                <path d="M20.4558054,9.02508331 C18.2711401,7.02229881 15.4503482,5.92105263 12.5112046,5.92105263 L12.5056304,5.92105263 L12.4887391,5.92105263 L12.0101521,5.92105263 L12.0044654,5.93246451 C9.23434739,6.04658328 6.59924725,7.13641758 4.53856415,9.02508331 L3.94736842,9.56714749 L4.51598611,10.1377414 L6.35719483,11.9864655 L6.86956446,12.5 L7.41008628,12.0207011 C8.83458647,10.7539827 10.6419563,10.0521523 12.4943696,10.0521523 C14.3579874,10.0521523 16.1654135,10.7539827 17.5899137,12.0207011 L18.1303792,12.5 L18.6428052,11.9864655 L20.4839576,10.1377414 L21.0526316,9.56714749 L20.4558054,9.02508331 Z" id="Fill-4" fill="#000000"></path>
                <path d="M12.8318743,18.4210526 L13.3938542,17.8679553 L16.4846851,14.8288309 L17.1052632,14.2175128 L16.4261456,13.6644155 C15.5246947,13.0006986 14.529522,12.5 12.8260204,12.5 C11.1283728,12.5 10.1975936,13.0472753 9.22583667,13.6644155 L8.55263158,14.2175128 L9.17315105,14.8288309 L12.2640405,17.8679553 L12.8318743,18.4210526 Z" id="Fill-6" fill="#000000"></path>
            </g>
        </g>
    </g>
</svg>