<?xml version="1.0" encoding="UTF-8"?>
<svg width="11px" height="22px" viewBox="0 0 11 22" version="1.1" xmlns="http://www.w3.org/2000/svg" xmlns:xlink="http://www.w3.org/1999/xlink">
    <!-- Generator: Sketch 48.2 (47327) - http://www.bohemiancoding.com/sketch -->
    <title>Page 1</title>
    <desc>Created with Sketch.</desc>
    <defs>
        <polygon id="path-1" points="6.875e-05 -0.0001375 11 -0.0001375 11 16.4998625 6.875e-05 16.4998625"></polygon>
    </defs>
    <g id="businesssymbol" stroke="none" stroke-width="1" fill="none" fill-rule="evenodd">
        <g id="Page-1">
            <polygon id="Fill-1" fill="#000000" points="3.9881875 4.125 6.7381875 4.125 6.7381875 0 3.9881875 0"></polygon>
            <polygon id="Fill-2" fill="#000000" points="3.9881875 22 6.7381875 22 6.7381875 17.875 3.9881875 17.875"></polygon>
            <polygon id="Fill-3" fill="#000000" points="3.9876375 18.5625 6.7376375 21.3125 6.7376375 18.5625"></polygon>
            <g id="Group-6" transform="translate(0.000000, 2.750000)">
                <mask id="mask-2" fill="white">
                    <use xlink:href="#path-1"></use>
                </mask>
                <g id="Clip-5"></g>
                <path d="M0.82506875,12.5811125 C1.78756875,13.0623625 3.30006875,13.5436125 4.81256875,13.5436125 C6.46256875,13.5436125 7.35631875,12.8561125 7.35631875,11.7561125 C7.35631875,10.7936125 6.60006875,10.1748625 4.67506875,9.5568 C1.99381875,8.5936125 0.27506875,7.1498625 0.27506875,4.8123625 C0.27506875,2.0623625 2.54381875,-0.0001375 6.32506875,-0.0001375 C8.18131875,-0.0001375 9.48756875,0.3436125 10.3813188,0.8248625 L9.55631875,3.7123625 C8.93756875,3.3686125 7.76881875,2.9561125 6.25631875,2.9561125 C4.67506875,2.9561125 3.91881875,3.7123625 3.91881875,4.4686125 C3.91881875,5.4998625 4.81256875,5.9123625 6.87506875,6.7373625 C9.69381875,7.7686125 11.0000688,9.2811125 11.0000688,11.5498625 C11.0000688,14.2311125 8.93756875,16.4998625 4.53756875,16.4998625 C2.68131875,16.4998625 0.89381875,16.0186125 6.875e-05,15.5373625 L0.82506875,12.5811125 Z" id="Fill-4" fill="#000000" mask="url(#mask-2)"></path>
            </g>
        </g>
    </g>
</svg>