<?xml version="1.0" encoding="UTF-8"?>
<svg width="25px" height="19px" viewBox="0 0 25 19" version="1.1" xmlns="http://www.w3.org/2000/svg" xmlns:xlink="http://www.w3.org/1999/xlink">
    <!-- Generator: Sketch 48.2 (47327) - http://www.bohemiancoding.com/sketch -->
    <title>Group</title>
    <desc>Created with Sketch.</desc>
    <defs></defs>
    <g id="itsymbol" stroke="none" stroke-width="1" fill="none" fill-rule="evenodd">
        <g id="Group" fill="#000000">
            <path d="M12.8318743,18.4210526 L13.3938542,17.8679553 L16.4846851,14.8288309 L17.1052632,14.2175128 L16.4261456,13.6644155 C15.5246947,13.0006986 14.529522,12.5 12.8260204,12.5 C11.1283728,12.5 10.1975936,13.0472753 9.22583667,13.6644155 L8.55263158,14.2175128 L9.17315105,14.8288309 L12.2640405,17.8679553 L12.8318743,18.4210526 Z" id="Fill-6"></path>
            <path d="M20.4558054,9.02508331 C18.2711401,7.02229881 15.4503482,5.92105263 12.5112046,5.92105263 L12.5056304,5.92105263 L12.4887391,5.92105263 L12.0101521,5.92105263 L12.0044654,5.93246451 C9.23434739,6.04658328 6.59924725,7.13641758 4.53856415,9.02508331 L3.94736842,9.56714749 L4.51598611,10.1377414 L6.35719483,11.9864655 L6.86956446,12.5 L7.41008628,12.0207011 C8.83458647,10.7539827 10.6419563,10.0521523 12.4943696,10.0521523 C14.3579874,10.0521523 16.1654135,10.7539827 17.5899137,12.0207011 L18.1303792,12.5 L18.6428052,11.9864655 L20.4839576,10.1377414 L21.0526316,9.56714749 L20.4558054,9.02508331 Z" id="Fill-4"></path>
            <path d="M24.9771461,4.96053221 C21.6666438,1.76361751 17.3345091,5.8983666e-06 12.7910731,5.8983666e-06 C8.23062785,5.8983666e-06 3.90408676,1.76361751 0.582226027,4.96053221 L-2.28310502e-05,5.52087704 L0.565045662,6.09891697 L2.40871005,7.98639428 L2.93947489,8.52904401 L3.48742009,8.00998775 C6.02737443,5.59755581 9.32646119,4.26452495 12.7796575,4.26452495 C16.232911,4.26452495 19.5376484,5.59755581 22.0719521,8.00998775 L22.6198402,8.52904401 L23.1506621,7.98639428 L24.9943265,6.09891697" id="Fill-1"></path>
        </g>
    </g>
</svg>